<svg width="16" height="16" viewBox="0 0 16 16" fill="none" xmlns="http://www.w3.org/2000/svg">
<path d="M15.544 11.307L12.044 9.80697C11.8944 9.7433 11.7282 9.72993 11.5704 9.76888C11.4126 9.80784 11.2717 9.89701 11.169 10.023L9.619 11.917C7.18597 10.77 5.22798 8.812 4.081 6.37897L5.975 4.82897C6.10123 4.72643 6.1906 4.58555 6.22958 4.42766C6.26856 4.26977 6.25501 4.10348 6.191 3.95397L4.691 0.453974C4.62081 0.292609 4.49646 0.16083 4.33944 0.0814046C4.18241 0.00197925 4.00258 -0.0201026 3.831 0.0189742L0.581 0.768974C0.415776 0.807187 0.26838 0.900268 0.162862 1.03303C0.0573448 1.16579 -6.52211e-05 1.33039 5.56045e-08 1.49997C5.56045e-08 5.34561 1.52767 9.03375 4.24695 11.753C6.96623 14.4723 10.6544 16 14.5 16C14.6696 16 14.8342 15.9426 14.9669 15.8371C15.0997 15.7316 15.1928 15.5842 15.231 15.419L15.981 12.169C16.0198 11.9966 15.9973 11.8161 15.9174 11.6586C15.8374 11.5011 15.705 11.3764 15.543 11.306L15.544 11.307Z" fill="#ED1C24"/>
</svg>
