<svg preserveAspectRatio="none" overflow="visible" style="display: block;" width="40" height="40" viewBox="0 0 40 40" fill="none" xmlns="http://www.w3.org/2000/svg">
<g id="lucide/microwave">
<path id="Vector" d="M30 13.3333V25M10 31.6667V35M30 31.6667V35M6.66667 6.66667H33.3333C35.1743 6.66667 36.6667 8.15905 36.6667 10V28.3333C36.6667 30.1743 35.1743 31.6667 33.3333 31.6667H6.66667C4.82572 31.6667 3.33333 30.1743 3.33333 28.3333V10C3.33333 8.15905 4.82572 6.66667 6.66667 6.66667ZM11.6667 13.3333H21.6667C22.5871 13.3333 23.3333 14.0795 23.3333 15V23.3333C23.3333 24.2538 22.5871 25 21.6667 25H11.6667C10.7462 25 10 24.2538 10 23.3333V15C10 14.0795 10.7462 13.3333 11.6667 13.3333Z" stroke="#EC458B" stroke-width="2.5" stroke-linecap="round" stroke-linejoin="round"/>
</g>
</svg>
